<?xml version="1.0" encoding="UTF-8"?>
<svg version="1.1" xmlns="http://www.w3.org/2000/svg" width="114" height="95">
<path d="M0 0 C0 11.88 0 23.76 0 36 C5.445 35.505 5.445 35.505 11 35 C11 33.35 11 31.7 11 30 C12.98 30 14.96 30 17 30 C17 31.98 17 33.96 17 36 C24.92 36 32.84 36 41 36 C41 35.34 41 34.68 41 34 C42.65 34 44.3 34 46 34 C46 34.33 46 34.66 46 35 C50.95 35.33 55.9 35.66 61 36 C60.505 32.535 60.505 32.535 60 29 C61 28 61 28 63.5625 27.9375 C64.7690625 27.9684375 64.7690625 27.9684375 66 28 C66.495 31.465 66.495 31.465 67 35 C72.61 35.33 78.22 35.66 84 36 C83.67 31.71 83.34 27.42 83 23 C82.505 24.485 82.505 24.485 82 26 C79.69 25.67 77.38 25.34 75 25 C75.99 17.74 76.98 10.48 78 3 C80.97 2.505 80.97 2.505 84 2 C84 1.34 84 0.68 84 0 C85.98 0 87.96 0 90 0 C90 26.4 90 52.8 90 80 C86.37 80.33 82.74 80.66 79 81 C79 71.43 79 61.86 79 52 C80.65 52 82.3 52 84 52 C84 48.7 84 45.4 84 42 C56.28 42 28.56 42 0 42 C0 54.54 0 67.08 0 80 C-2.31 80 -4.62 80 -7 80 C-7 53.93 -7 27.86 -7 1 C-2 0 -2 0 0 0 Z " fill="#2199B2" transform="translate(10,5)"/>
<path d="M0 0 C0.66 0.33 1.32 0.66 2 1 C2 1.66 2 2.32 2 3 C3.32 3 4.64 3 6 3 C6 2.34 6 1.68 6 1 C5.34 0.67 4.68 0.34 4 0 C28.42 0 52.84 0 78 0 C78 0.66 78 1.32 78 2 C76.02 2 74.04 2 72 2 C72 2.66 72 3.32 72 4 C48.9 4 25.8 4 2 4 C2 16.87 2 29.74 2 43 C-0.31 43 -2.62 43 -5 43 C-5.05003872 39.05309997 -5.08601633 35.10632691 -5.10986328 31.15917969 C-5.12467591 29.16855363 -5.15010992 27.17801563 -5.17578125 25.1875 C-5.2706846 6.39663708 -5.2706846 6.39663708 0 0 Z " fill="#07A6AC" transform="translate(8,42)"/>
<path d="M0 0 C2.97 0 5.94 0 9 0 C9.33 4.95 9.66 9.9 10 15 C11.32 15 12.64 15 14 15 C14 20.28 14 25.56 14 31 C12.68 31 11.36 31 10 31 C9.67 33.31 9.34 35.62 9 38 C6.03 37.67 3.06 37.34 0 37 C0 24.79 0 12.58 0 0 Z M2 27 C2 28.32 2 29.64 2 31 C3.65 31 5.3 31 7 31 C7 29.68 7 28.36 7 27 C5.35 27 3.7 27 2 27 Z " fill="#0AA6AF" transform="translate(41,2)"/>
<path d="M0 0 C2.64 0 5.28 0 8 0 C8 12.21 8 24.42 8 37 C5.03 37 2.06 37 -1 37 C-1.0246826 32.05208706 -1.04285166 27.1042098 -1.05493164 22.15625 C-1.05996653 20.47232438 -1.06679481 18.78840314 -1.07543945 17.10449219 C-1.08754196 14.68683797 -1.09323668 12.26924144 -1.09765625 9.8515625 C-1.10281754 9.0963028 -1.10797882 8.34104309 -1.11329651 7.56289673 C-1.11387171 2.22774341 -1.11387171 2.22774341 0 0 Z M1 27 C1 28.32 1 29.64 1 31 C2.65 31 4.3 31 6 31 C6 29.68 6 28.36 6 27 C4.35 27 2.7 27 1 27 Z " fill="#11B380" transform="translate(12,2)"/>
<path d="M0 0 C1.23556641 0.01740234 1.23556641 0.01740234 2.49609375 0.03515625 C3.32238281 0.04417969 4.14867187 0.05320312 5 0.0625 C5.63808594 0.07410156 6.27617188 0.08570313 6.93359375 0.09765625 C6.95824565 4.92146427 6.97643068 9.74523592 6.98852539 14.5690918 C6.99356549 16.21135089 7.00039753 17.85360548 7.0090332 19.49584961 C7.02111301 21.85141104 7.02682514 24.20691334 7.03125 26.5625 C7.03641129 27.30104721 7.04157257 28.03959442 7.04689026 28.80052185 C7.04708625 30.56663713 6.99554094 32.33262771 6.93359375 34.09765625 C5.93359375 35.09765625 5.93359375 35.09765625 4.0859375 35.1953125 C2.03515625 35.16276042 -0.015625 35.13020833 -2.06640625 35.09765625 C-2.72617639 26.44995479 -3.1704309 17.83521044 -3.19140625 9.16015625 C-3.19591797 8.37334473 -3.20042969 7.5865332 -3.20507812 6.77587891 C-3.18747731 0.15063692 -3.18747731 0.15063692 0 0 Z M-1.06640625 26.09765625 C-0.73640625 27.41765625 -0.40640625 28.73765625 -0.06640625 30.09765625 C1.58359375 30.09765625 3.23359375 30.09765625 4.93359375 30.09765625 C4.93359375 28.77765625 4.93359375 27.45765625 4.93359375 26.09765625 C2.95359375 26.09765625 0.97359375 26.09765625 -1.06640625 26.09765625 Z " fill="#0DA6A6" transform="translate(32.06640625,4.90234375)"/>
<path d="M0 0 C0.33 0 0.66 0 1 0 C1 14.85 1 29.7 1 45 C-4.445 45.495 -4.445 45.495 -10 46 C-10.02683697 42.85411056 -10.04675902 39.70844729 -10.0625 36.5625 C-10.07087891 35.66466797 -10.07925781 34.76683594 -10.08789062 33.84179688 C-10.09111328 32.98779297 -10.09433594 32.13378906 -10.09765625 31.25390625 C-10.10551147 30.06776733 -10.10551147 30.06776733 -10.11352539 28.85766602 C-10 27 -10 27 -9 26 C-7.33382885 25.95936168 -5.66611905 25.957279 -4 26 C-4 24.35 -4 22.7 -4 21 C-3.34 20.67 -2.68 20.34 -2 20 C-0.68113765 16.03543273 -0.66064655 11.89101465 -0.4375 7.75 C-0.39431641 7.00492188 -0.35113281 6.25984375 -0.30664062 5.4921875 C-0.20103275 3.661651 -0.10005799 1.83084824 0 0 Z " fill="#2DC299" transform="translate(99,40)"/>
<path d="M0 0 C2.64 0 5.28 0 8 0 C8 11.22 8 22.44 8 34 C5.36 34 2.72 34 0 34 C0 22.78 0 11.56 0 0 Z M1 6 C1 6.99 1 7.98 1 9 C2.65 9 4.3 9 6 9 C6 8.01 6 7.02 6 6 C4.35 6 2.7 6 1 6 Z " fill="#0679E1" transform="translate(26,52)"/>
<path d="M0 0 C4.95 0 9.9 0 15 0 C15 6.27 15 12.54 15 19 C10.71 19 6.42 19 2 19 C1.67 17.02 1.34 15.04 1 13 C0.01 13 -0.98 13 -2 13 C-2 10.36 -2 7.72 -2 5 C-0.02 4.67 1.96 4.34 4 4 C4.33 3.01 4.66 2.02 5 1 C3.35 1 1.7 1 0 1 C0 0.67 0 0.34 0 0 Z " fill="#1DAEB2" transform="translate(72,60)"/>
<path d="M0 0 C2.31 0 4.62 0 7 0 C7 11.55 7 23.1 7 35 C4.69 35 2.38 35 0 35 C0 23.45 0 11.9 0 0 Z " fill="#0396C2" transform="translate(11,51)"/>
<path d="M0 0 C2.31 0 4.62 0 7 0 C7 10.89 7 21.78 7 33 C4.69 33 2.38 33 0 33 C0 22.11 0 11.22 0 0 Z " fill="#0489D1" transform="translate(57,7)"/>
<path d="M0 0 C2.31 0 4.62 0 7 0 C7 9.57 7 19.14 7 29 C4.36 29 1.72 29 -1 29 C-1.02465881 25.03069011 -1.04284023 21.06140966 -1.05493164 17.09204102 C-1.05997057 15.74079614 -1.06680177 14.38955674 -1.07543945 13.03833008 C-1.08752419 11.09979566 -1.09269828 9.161222 -1.09765625 7.22265625 C-1.10289307 6.05484619 -1.10812988 4.88703613 -1.11352539 3.68383789 C-1 1 -1 1 0 0 Z " fill="#0A85DB" transform="translate(42,57)"/>
<path d="M0 0 C0.66 1.32 1.32 2.64 2 4 C3.65 3.67 5.3 3.34 7 3 C8.32 9.6 9.64 16.2 11 23 C9.35 23.33 7.7 23.66 6 24 C5.34 21.69 4.68 19.38 4 17 C4 17.99 4 18.98 4 20 C2.02 20.33 0.04 20.66 -2 21 C-3.32 14.4 -4.64 7.8 -6 1 C-2 0 -2 0 0 0 Z M2 7 C3 9 3 9 3 9 Z " fill="#1677C5" transform="translate(71,11)"/>
<path d="M0 0 C0 2.97 0 5.94 0 9 C-1.98 9.99 -1.98 9.99 -4 11 C-3.79375 11.5775 -3.5875 12.155 -3.375 12.75 C-2.89830691 15.61015855 -3.60129272 16.49705013 -5 19 C-5.68960962 20.99220557 -6.36079057 22.99105606 -7 25 C-9.31 24.67 -11.62 24.34 -14 24 C-13.01 16.74 -12.02 9.48 -11 2 C-4.25 -0.25 -4.25 -0.25 0 0 Z " fill="#1982C3" transform="translate(99,6)"/>
<path d="M0 0 C0.07451364 4.3049777 0.12877223 8.60960734 0.16479492 12.91503906 C0.17982196 14.37767075 0.20024955 15.84025782 0.22631836 17.30273438 C0.26297267 19.4128728 0.27978676 21.52241226 0.29296875 23.6328125 C0.31653442 25.53377686 0.31653442 25.53377686 0.34057617 27.47314453 C-0.03126338 31.32374962 -0.97692742 33.72361228 -3 37 C-3.99 37.495 -3.99 37.495 -5 38 C-5.2863871 33.37362971 -5.57117446 28.74716474 -5.85449219 24.12060547 C-5.95105948 22.54733634 -6.04806071 20.97409378 -6.14550781 19.40087891 C-6.2856525 17.13711312 -6.42422667 14.87325577 -6.5625 12.609375 C-6.60624756 11.90818542 -6.64999512 11.20699585 -6.69506836 10.48455811 C-6.88742226 7.31217018 -7 4.1803649 -7 1 C-2.25 0 -2.25 0 0 0 Z " fill="#0DCD7A" transform="translate(10,5)"/>
<path d="M0 0 C1.31478333 0.00212242 1.31478333 0.00212242 2.65612793 0.00428772 C5.42703821 0.00983857 8.19786457 0.02238164 10.96875 0.03515625 C12.85937382 0.04017761 14.74999893 0.0447394 16.640625 0.04882812 C21.25003183 0.05979185 25.85937673 0.077022 30.46875 0.09765625 C30.46875 0.75765625 30.46875 1.41765625 30.46875 2.09765625 C28.48875 2.09765625 26.50875 2.09765625 24.46875 2.09765625 C24.46875 2.75765625 24.46875 3.41765625 24.46875 4.09765625 C9.94875 4.09765625 -4.57125 4.09765625 -19.53125 4.09765625 C-18.87125 3.76765625 -18.21125 3.43765625 -17.53125 3.09765625 C-17.53125 2.43765625 -17.53125 1.77765625 -17.53125 1.09765625 C-11.63924549 0.24284234 -5.94866829 -0.03682885 0 0 Z " fill="#0B7ED7" transform="translate(55.53125,41.90234375)"/>
<path d="M0 0 C1.98 0 3.96 0 6 0 C6 8.91 6 17.82 6 27 C4.02 27 2.04 27 0 27 C0 18.09 0 9.18 0 0 Z " fill="#2388B2" transform="translate(57,59)"/>
<path d="M0 0 C0.33 0 0.66 0 1 0 C1.02505615 0.61407715 1.0501123 1.2281543 1.07592773 1.86083984 C1.19345264 4.69902634 1.31545526 7.5370044 1.4375 10.375 C1.47681641 11.34050781 1.51613281 12.30601563 1.55664062 13.30078125 C1.82980822 19.56262312 2.30323128 25.77097309 3 32 C3.99 30.02 4.98 28.04 6 26 C6.33 26 6.66 26 7 26 C7 27.65 7 29.3 7 31 C10.63 30.67 14.26 30.34 18 30 C18 28.35 18 26.7 18 25 C19.98 25 21.96 25 24 25 C24 26.98 24 28.96 24 31 C25.32 31.33 26.64 31.66 28 32 C19.585 32.495 19.585 32.495 11 33 C11 33.66 11 34.32 11 35 C9.68 35 8.36 35 7 35 C6.34 34.34 5.68 33.68 5 33 C2.99706653 36.00440021 2.50728374 37.70993945 1.875 41.1875 C1.70742187 42.08855469 1.53984375 42.98960938 1.3671875 43.91796875 C1.24601563 44.60503906 1.12484375 45.29210938 1 46 C0.67 46 0.34 46 0 46 C0 30.82 0 15.64 0 0 Z " fill="#1FB590" transform="translate(3,10)"/>
<path d="M0 0 C7.59 0 15.18 0 23 0 C23 1.98 23 3.96 23 6 C15.41 6 7.82 6 0 6 C0 4.02 0 2.04 0 0 Z " fill="#279291" transform="translate(64,81)"/>
<path d="M0 0 C1.98 0 3.96 0 6 0 C6 7.59 6 15.18 6 23 C4.02 23 2.04 23 0 23 C0 15.41 0 7.82 0 0 Z " fill="#1AAD96" transform="translate(21,10)"/>
<path d="M0 0 C4.95 0 9.9 0 15 0 C15 6.27 15 12.54 15 19 C10.71 19 6.42 19 2 19 C2.33 18.34 2.66 17.68 3 17 C4.32 17 5.64 17 7 17 C7 16.01 7 15.02 7 14 C7.99 13.67 8.98 13.34 10 13 C12.56039231 9.44389957 12.5765018 5.23498202 13 1 C10.69 1 8.38 1 6 1 C5.67 2.65 5.34 4.3 5 6 C4.01 6 3.02 6 2 6 C2 8.31 2 10.62 2 13 C0.68 13 -0.64 13 -2 13 C-2 10.36 -2 7.72 -2 5 C-0.02 4.67 1.96 4.34 4 4 C4.33 3.01 4.66 2.02 5 1 C3.35 1 1.7 1 0 1 C0 0.67 0 0.34 0 0 Z " fill="#2B9B9A" transform="translate(72,60)"/>
<path d="M0 0 C2.64 0 5.28 0 8 0 C8 11.22 8 22.44 8 34 C5.36 34 2.72 34 0 34 C0 22.78 0 11.56 0 0 Z M1 6 C1 6.99 1 7.98 1 9 C2.65 9 4.3 9 6 9 C6 8.01 6 7.02 6 6 C4.35 6 2.7 6 1 6 Z M1 10 C1 17.59 1 25.18 1 33 C2.98 33 4.96 33 7 33 C7 25.41 7 17.82 7 10 C5.02 10 3.04 10 1 10 Z " fill="#1573B6" transform="translate(26,52)"/>
<path d="M0 0 C1.2065625 0.0309375 1.2065625 0.0309375 2.4375 0.0625 C2.9325 3.5275 2.9325 3.5275 3.4375 7.0625 C9.0475 7.3925 14.6575 7.7225 20.4375 8.0625 C20.4375 8.3925 20.4375 8.7225 20.4375 9.0625 C-25.37144925 10.46277356 -25.37144925 10.46277356 -42.5625 9.0625 C-42.5625 8.7325 -42.5625 8.4025 -42.5625 8.0625 C-35.9625 8.0625 -29.3625 8.0625 -22.5625 8.0625 C-22.5625 7.4025 -22.5625 6.7425 -22.5625 6.0625 C-20.9125 6.0625 -19.2625 6.0625 -17.5625 6.0625 C-17.5625 6.3925 -17.5625 6.7225 -17.5625 7.0625 C-12.6125 7.3925 -7.6625 7.7225 -2.5625 8.0625 C-3.0575 4.5975 -3.0575 4.5975 -3.5625 1.0625 C-2.5625 0.0625 -2.5625 0.0625 0 0 Z " fill="#287AAB" transform="translate(73.5625,32.9375)"/>
<path d="M0 0 C0.09507063 6.43311296 0.15316726 12.65758005 -1 19 C-2.98 19 -4.96 19 -7 19 C-7 13.06 -7 7.12 -7 1 C-1 0 -1 0 0 0 Z " fill="#02B4A3" transform="translate(38,6)"/>
<path d="M0 0 C1.65 0 3.3 0 5 0 C5 7.59 5 15.18 5 23 C3.35 23 1.7 23 0 23 C0 15.41 0 7.82 0 0 Z " fill="#39BA9A" transform="translate(105,39)"/>
<path d="M0 0 C2.31 0 4.62 0 7 0 C7 11.55 7 23.1 7 35 C4.69 35 2.38 35 0 35 C0 23.45 0 11.9 0 0 Z M3 3 C0.14521771 12.59590684 0.83380086 24.08345151 1 34 C2.65 34 4.3 34 6 34 C6 23.77 6 13.54 6 3 C5.01 3 4.02 3 3 3 Z " fill="#1781A1" transform="translate(11,51)"/>
<path d="M0 0 C2.31 0 4.62 0 7 0 C7 9.57 7 19.14 7 29 C4.36 29 1.72 29 -1 29 C-1.02465881 25.03069011 -1.04284023 21.06140966 -1.05493164 17.09204102 C-1.05997057 15.74079614 -1.06680177 14.38955674 -1.07543945 13.03833008 C-1.08752419 11.09979566 -1.09269828 9.161222 -1.09765625 7.22265625 C-1.10289307 6.05484619 -1.10812988 4.88703613 -1.11352539 3.68383789 C-1 1 -1 1 0 0 Z M1 2 C1 10.58 1 19.16 1 28 C2.65 28 4.3 28 6 28 C6.14368684 19.28299826 5.71961582 10.68679101 5 2 C3.68 2 2.36 2 1 2 Z " fill="#1C6DAC" transform="translate(42,57)"/>
<path d="M0 0 C2.31 0 4.62 0 7 0 C7 10.89 7 21.78 7 33 C4.69 33 2.38 33 0 33 C0 22.11 0 11.22 0 0 Z M4 2 C1.24560484 4.75439516 1.69010724 6.46603203 1.5859375 10.3203125 C1.54726563 11.57714844 1.50859375 12.83398438 1.46875 14.12890625 C1.4378125 15.44761719 1.406875 16.76632813 1.375 18.125 C1.33681971 19.46486918 1.29776794 20.80471383 1.2578125 22.14453125 C1.1632797 25.42954619 1.07772844 28.71455138 1 32 C2.65 32 4.3 32 6 32 C6 22.1 6 12.2 6 2 C5.34 2 4.68 2 4 2 Z " fill="#1D7FB3" transform="translate(57,7)"/>
<path d="M0 0 C0.33 0 0.66 0 1 0 C1 9.9 1 19.8 1 30 C-1.31 30 -3.62 30 -6 30 C-6 20.43 -6 10.86 -6 1 C-5.67 1 -5.34 1 -5 1 C-4.9498877 1.72179443 -4.89977539 2.44358887 -4.84814453 3.18725586 C-4.61693201 6.43812489 -4.37116681 9.68773066 -4.125 12.9375 C-4.04636719 14.07380859 -3.96773438 15.21011719 -3.88671875 16.38085938 C-3.80292969 17.46044922 -3.71914062 18.54003906 -3.6328125 19.65234375 C-3.55949707 20.65257568 -3.48618164 21.65280762 -3.41064453 22.68334961 C-3.27513184 23.44784424 -3.13961914 24.21233887 -3 25 C-2.34 25.33 -1.68 25.66 -1 26 C-0.67 17.42 -0.34 8.84 0 0 Z " fill="#1581A1" transform="translate(9,55)"/>
<path d="M0 0 C0 2.97 0 5.94 0 9 C-4.43076923 11.09230769 -4.43076923 11.09230769 -7.3125 10.625 C-7.869375 10.41875 -8.42625 10.2125 -9 10 C-9.33 10.66 -9.66 11.32 -10 12 C-10.23822167 9.14133991 -10.42775712 6.80180916 -10 4 C-6.91722952 0.47683374 -4.64436785 -0.5307849 0 0 Z " fill="#0D85D6" transform="translate(99,6)"/>
<path d="M0 0 C0.33 0 0.66 0 1 0 C1 8.58 1 17.16 1 26 C2.98 26 4.96 26 7 26 C7 26.33 7 26.66 7 27 C5.35 27 3.7 27 2 27 C2 28.32 2 29.64 2 31 C3.65 31 5.3 31 7 31 C7 31.66 7 32.32 7 33 C5.35 33 3.7 33 2 33 C2 33.99 2 34.98 2 36 C3.65 36 5.3 36 7 36 C7.33 32.7 7.66 29.4 8 26 C8.33 26 8.66 26 9 26 C9 29.96 9 33.92 9 38 C6.03 37.67 3.06 37.34 0 37 C0 24.79 0 12.58 0 0 Z " fill="#1A7B99" transform="translate(41,2)"/>
<path d="M0 0 C1.65 0 3.3 0 5 0 C5 4.95 5 9.9 5 15 C3.35 15 1.7 15 0 15 C0 10.05 0 5.1 0 0 Z " fill="#1470C7" transform="translate(35,64)"/>
<path d="M0 0 C2.97 0 5.94 0 9 0 C9 11.22 9 22.44 9 34 C8.67 34 8.34 34 8 34 C7.67 23.44 7.34 12.88 7 2 C5.02 2 3.04 2 1 2 C0.67 7.61 0.34 13.22 0 19 C-0.33 19 -0.66 19 -1 19 C-1.02683987 16.02077407 -1.04676037 13.04178705 -1.0625 10.0625 C-1.07087891 9.21236328 -1.07925781 8.36222656 -1.08789062 7.48632812 C-1.09111328 6.67744141 -1.09433594 5.86855469 -1.09765625 5.03515625 C-1.10289307 4.2862915 -1.10812988 3.53742676 -1.11352539 2.76586914 C-1 1 -1 1 0 0 Z " fill="#279889" transform="translate(30,5)"/>
<path d="M0 0 C1.32 0 2.64 0 4 0 C4 5.94 4 11.88 4 18 C2.68 18 1.36 18 0 18 C0 12.06 0 6.12 0 0 Z " fill="#1480B9" transform="translate(20,61)"/>
<path d="M0 0 C0.33 0 0.66 0 1 0 C1 1.98 1 3.96 1 6 C1.61875 5.505 2.2375 5.01 2.875 4.5 C5 3 5 3 7 3 C8.23180249 9.15901243 7.73030908 14.78675502 7 21 C5.02 20.67 3.04 20.34 1 20 C1 19.01 1 18.02 1 17 C2.65 17 4.3 17 6 17 C6 14.69 6 12.38 6 10 C4.02 10 2.04 10 0 10 C0 6.7 0 3.4 0 0 Z " fill="#1493B2" transform="translate(42,18)"/>
<path d="M0 0 C6.93 0 13.86 0 21 0 C21 1.32 21 2.64 21 4 C14.07 3.67 7.14 3.34 0 3 C0 2.01 0 1.02 0 0 Z " fill="#28BFA4" transform="translate(65,82)"/>
<path d="M0 0 C1.72769754 14.02973662 1.72769754 14.02973662 -2 19 C-2.66 19.33 -3.32 19.66 -4 20 C-4.08112454 17.41603321 -4.14054748 14.83462432 -4.1875 12.25 C-4.21263672 11.52039062 -4.23777344 10.79078125 -4.26367188 10.0390625 C-4.30928324 6.69422902 -4.23971148 4.41610294 -2.55078125 1.484375 C-1 0 -1 0 0 0 Z " fill="#01C88C" transform="translate(9,23)"/>
<path d="M0 0 C1.32 0 2.64 0 4 0 C4 5.28 4 10.56 4 16 C2.68 16 1.36 16 0 16 C0 10.72 0 5.44 0 0 Z " fill="#2983B0" transform="translate(51,63)"/>
<path d="M0 0 C1.32 0 2.64 0 4 0 C4 5.28 4 10.56 4 16 C2.68 16 1.36 16 0 16 C0 10.72 0 5.44 0 0 Z " fill="#108BBD" transform="translate(51,17)"/>
<path d="M0 0 C0.33 0 0.66 0 1 0 C1.33 2.64 1.66 5.28 2 8 C3.65 8.33 5.3 8.66 7 9 C7 10.65 7 12.3 7 14 C4.03 14 1.06 14 -2 14 C-1.85970581 11.8537974 -1.71261836 9.70803782 -1.5625 7.5625 C-1.48128906 6.36753906 -1.40007812 5.17257813 -1.31640625 3.94140625 C-1 1 -1 1 0 0 Z " fill="#298496" transform="translate(66,65)"/>
<path d="M0 0 C0.33 0.99 0.66 1.98 1 3 C3.47266765 2.65555119 3.47266765 2.65555119 6 2 C6.33 1.34 6.66 0.68 7 0 C7 4.29 7 8.58 7 13 C4.69 13 2.38 13 0 13 C0 8.71 0 4.42 0 0 Z M1 4 C1 5.32 1 6.64 1 8 C2.65 8 4.3 8 6 8 C6 6.68 6 5.36 6 4 C4.35 4 2.7 4 1 4 Z " fill="#20A991" transform="translate(12,25)"/>
<path d="M0 0 C4.95 0 9.9 0 15 0 C15 0.66 15 1.32 15 2 C13.02 2 11.04 2 9 2 C9 2.66 9 3.32 9 4 C2.73 4 -3.54 4 -10 4 C-10 3.67 -10 3.34 -10 3 C-6.7 3 -3.4 3 0 3 C0 2.01 0 1.02 0 0 Z " fill="#158DCA" transform="translate(71,42)"/>
<path d="M0 0 C2.64 0.33 5.28 0.66 8 1 C8 4.3 8 7.6 8 11 C5.36 11 2.72 11 0 11 C0 7.37 0 3.74 0 0 Z M1 2 C1.33 3.32 1.66 4.64 2 6 C3.65 6 5.3 6 7 6 C7 4.68 7 3.36 7 2 C5.02 2 3.04 2 1 2 Z " fill="#1C859A" transform="translate(30,29)"/>
<path d="M0 0 C1.4540625 0.0309375 1.4540625 0.0309375 2.9375 0.0625 C4.36838528 2.92427057 3.53741697 4.99625773 2.9375 8.0625 C0.93795254 8.10504356 -1.06291636 8.10330783 -3.0625 8.0625 C-4.0625 7.0625 -4.0625 7.0625 -4.1875 4.0625 C-4.02164894 0.08207447 -4.02164894 0.08207447 0 0 Z " fill="#1E81AC" transform="translate(88.0625,31.9375)"/>
<path d="M0 0 C1.98 0 3.96 0 6 0 C5.63076923 7.26153846 5.63076923 7.26153846 2.4375 11 C1.633125 11.66 0.82875 12.32 0 13 C0 8.71 0 4.42 0 0 Z " fill="#0482D6" transform="translate(27,62)"/>
<path d="M0 0 C6.6 0 13.2 0 20 0 C20 0.33 20 0.66 20 1 C17.36 1 14.72 1 12 1 C12 1.66 12 2.32 12 3 C9.59454362 4.20272819 8.05003047 4.10071472 5.375 4.0625 C4.14910156 4.04896484 4.14910156 4.04896484 2.8984375 4.03515625 C1.95871094 4.01775391 1.95871094 4.01775391 1 4 C0.67 2.68 0.34 1.36 0 0 Z " fill="#0C93BB" transform="translate(26,42)"/>
<path d="M0 0 C1.98 0 3.96 0 6 0 C6 2.31 6 4.62 6 7 C5.34 7 4.68 7 4 7 C4 7.66 4 8.32 4 9 C2.68 9.33 1.36 9.66 0 10 C0 6.7 0 3.4 0 0 Z " fill="#05D77E" transform="translate(13,3)"/>
<path d="M0 0 C1.98 0 3.96 0 6 0 C6 1.98 6 3.96 6 6 C7.32 6.33 8.64 6.66 10 7 C3.73 7 -2.54 7 -9 7 C-9 6.67 -9 6.34 -9 6 C-4.545 5.505 -4.545 5.505 0 5 C0 3.35 0 1.7 0 0 Z " fill="#25999B" transform="translate(21,35)"/>
<path d="M0 0 C1.2065625 0.0309375 1.2065625 0.0309375 2.4375 0.0625 C2.7675 2.3725 3.0975 4.6825 3.4375 7.0625 C1.4575 7.3925 -0.5225 7.7225 -2.5625 8.0625 C-2.94313221 5.7364143 -3.27519945 3.40194736 -3.5625 1.0625 C-2.5625 0.0625 -2.5625 0.0625 0 0 Z " fill="#1677C3" transform="translate(73.5625,32.9375)"/>
<path d="M0 0 C1.98 0 3.96 0 6 0 C6 2.31 6 4.62 6 7 C4.02 7 2.04 7 0 7 C0 4.69 0 2.38 0 0 Z " fill="#2DAC8B" transform="translate(21,10)"/>
<path d="M0 0 C0.33 0 0.66 0 1 0 C1 3.3 1 6.6 1 10 C-0.65 10 -2.3 10 -4 10 C-4 7.69 -4 5.38 -4 3 C-3.01 2.67 -2.02 2.34 -1 2 C-0.67 1.34 -0.34 0.68 0 0 Z " fill="#0A77DE" transform="translate(62,29)"/>
<path d="M0 0 C2.35119399 3.52679099 2.21443452 5.02879485 2.125 9.1875 C2.10695313 10.27417969 2.08890625 11.36085938 2.0703125 12.48046875 C2.03550781 13.72763672 2.03550781 13.72763672 2 15 C0.35 15 -1.3 15 -3 15 C-3 13.35 -3 11.7 -3 10 C-2.34 10 -1.68 10 -1 10 C-0.37542727 6.56484998 0 3.50935186 0 0 Z " fill="#138CCB" transform="translate(46,70)"/>
<path d="M0 0 C0.66 0.33 1.32 0.66 2 1 C2 3.97 2 6.94 2 10 C0.68 10 -0.64 10 -2 10 C-2 7.03 -2 4.06 -2 1 C-1.34 0.67 -0.68 0.34 0 0 Z " fill="#1BA0BA" transform="translate(60,75)"/>
<path d="M0 0 C0.33 0 0.66 0 1 0 C1 2.31 1 4.62 1 7 C2.32 6.34 3.64 5.68 5 5 C5 7.31 5 9.62 5 12 C3.35 12 1.7 12 0 12 C0 8.04 0 4.08 0 0 Z " fill="#0A81CF" transform="translate(12,73)"/>
<path d="M0 0 C1.65 0 3.3 0 5 0 C5 2.31 5 4.62 5 7 C3.35 7 1.7 7 0 7 C0 4.69 0 2.38 0 0 Z " fill="#1877BF" transform="translate(35,55)"/>
<path d="M0 0 C1.4370809 -0.05422947 2.87475462 -0.09289723 4.3125 -0.125 C5.11300781 -0.14820312 5.91351563 -0.17140625 6.73828125 -0.1953125 C9 0 9 0 12 2 C11 3 11 3 8.49609375 3.09765625 C6.98208984 3.08025391 6.98208984 3.08025391 5.4375 3.0625 C4.42558594 3.05347656 3.41367188 3.04445313 2.37109375 3.03515625 C1.58863281 3.02355469 0.80617188 3.01195313 0 3 C0 2.01 0 1.02 0 0 Z " fill="#20B2B1" transform="translate(65,82)"/>
<path d="M0 0 C0.33 0.99 0.66 1.98 1 3 C1.66 3 2.32 3 3 3 C2.67 5.31 2.34 7.62 2 10 C1.01 10 0.02 10 -1 10 C-1 9.34 -1 8.68 -1 8 C-1.66 8 -2.32 8 -3 8 C-3 7.01 -3 6.02 -3 5 C-2.34 4.67 -1.68 4.34 -1 4 C-0.34786708 1.97536745 -0.34786708 1.97536745 0 0 Z " fill="#0F82E4" transform="translate(72,17)"/>
<path d="M0 0 C1.32 0 2.64 0 4 0 C4 5.28 4 10.56 4 16 C2.68 16 1.36 16 0 16 C0.33 14.68 0.66 13.36 1 12 C1 12.99 1 13.98 1 15 C1.66 15 2.32 15 3 15 C3 11.04 3 7.08 3 3 C2.01 3.33 1.02 3.66 0 4 C0 2.68 0 1.36 0 0 Z " fill="#2C81A2" transform="translate(51,17)"/>
<path d="M0 0 C0 3.96 0 7.92 0 12 C-0.33 12 -0.66 12 -1 12 C-1.33 9.03 -1.66 6.06 -2 3 C-3.32 3.33 -4.64 3.66 -6 4 C-6 5.65 -6 7.3 -6 9 C-6.33 9 -6.66 9 -7 9 C-7 6.36 -7 3.72 -7 1 C-1.125 0 -1.125 0 0 0 Z " fill="#0AB898" transform="translate(38,6)"/>
<path d="M0 0 C1.32 0 2.64 0 4 0 C3.6875 3.375 3.6875 3.375 3 7 C2.01 7.66 1.02 8.32 0 9 C0 6.03 0 3.06 0 0 Z " fill="#0679E1" transform="translate(43,59)"/>
<path d="M0 0 C0.33 1.98 0.66 3.96 1 6 C-1.31 6 -3.62 6 -6 6 C-6 5.01 -6 4.02 -6 3 C-2.66666667 0 -2.66666667 0 0 0 Z " fill="#0698BC" transform="translate(49,21)"/>
<path d="M0 0 C1.32 0 2.64 0 4 0 C3.6875 2.375 3.6875 2.375 3 5 C2.01 5.66 1.02 6.32 0 7 C-1 6 -1 6 -1.125 3.5 C-1 1 -1 1 0 0 Z " fill="#06E16D" transform="translate(5,7)"/>
<path d="M0 0 C0.66 0 1.32 0 2 0 C2.38218767 1.65614657 2.71395102 3.32457024 3 5 C2 6 2 6 -0.5625 6.0625 C-1.7690625 6.0315625 -1.7690625 6.0315625 -3 6 C-2.67 4.68 -2.34 3.36 -2 2 C-1.34 2 -0.68 2 0 2 C0 1.34 0 0.68 0 0 Z " fill="#1894C3" transform="translate(87,33)"/>
<path d="M0 0 C0.99 0 1.98 0 3 0 C3.33 2.31 3.66 4.62 4 7 C2.68 7 1.36 7 0 7 C0 4.69 0 2.38 0 0 Z " fill="#0D8ED0" transform="translate(87,22)"/>
<path d="M0 0 C1.98 0 3.96 0 6 0 C6 1.65 6 3.3 6 5 C3.03 4.505 3.03 4.505 0 4 C0 2.68 0 1.36 0 0 Z " fill="#078DC8" transform="translate(27,53)"/>
<path d="M0 0 C1.32 0 2.64 0 4 0 C4 1.98 4 3.96 4 6 C2.68 6 1.36 6 0 6 C0 4.02 0 2.04 0 0 Z " fill="#168BAE" transform="translate(20,54)"/>
<path d="M0 0 C2.64 0 5.28 0 8 0 C8 0.99 8 1.98 8 3 C5.36 3 2.72 3 0 3 C0 2.01 0 1.02 0 0 Z " fill="#2971B9" transform="translate(41,53)"/>
<path d="M0 0 C1.65 0 3.3 0 5 0 C5.66 1.32 6.32 2.64 7 4 C4.69 4 2.38 4 0 4 C0 2.68 0 1.36 0 0 Z " fill="#0DB39F" transform="translate(12,34)"/>
<path d="M0 0 C1.32 0 2.64 0 4 0 C4 1.98 4 3.96 4 6 C2.68 6 1.36 6 0 6 C0 4.02 0 2.04 0 0 Z " fill="#22899D" transform="translate(51,10)"/>
<path d="M0 0 C0.99 0 1.98 0 3 0 C3.1875 2.8125 3.1875 2.8125 3 6 C2.01 6.99 1.02 7.98 0 9 C0 6.03 0 3.06 0 0 Z " fill="#2BB7A8" transform="translate(106,40)"/>
<path d="M0 0 C1.32 0.33 2.64 0.66 4 1 C4 2.98 4 4.96 4 7 C2.68 7 1.36 7 0 7 C0 4.69 0 2.38 0 0 Z " fill="#2D7790" transform="translate(51,80)"/>
<path d="M0 0 C0.33 0 0.66 0 1 0 C1 1.98 1 3.96 1 6 C-1.97 5.505 -1.97 5.505 -5 5 C-5 4.01 -5 3.02 -5 2 C-3.35 2 -1.7 2 0 2 C0 1.34 0 0.68 0 0 Z " fill="#078ACA" transform="translate(48,33)"/>
<path d="M0 0 C0.33 0 0.66 0 1 0 C1 2.64 1 5.28 1 8 C-0.32 8.33 -1.64 8.66 -3 9 C-3 7.68 -3 6.36 -3 5 C-2.34 4.67 -1.68 4.34 -1 4 C-0.34786708 1.97536745 -0.34786708 1.97536745 0 0 Z " fill="#20C3A6" transform="translate(98,56)"/>
<path d="M0 0 C1.32 0 2.64 0 4 0 C4 1.65 4 3.3 4 5 C2.68 5 1.36 5 0 5 C0 3.35 0 1.7 0 0 Z " fill="#2572AB" transform="translate(51,57)"/>
<path d="M0 0 C1.98 0 3.96 0 6 0 C6.33 0.99 6.66 1.98 7 3 C4.69 3 2.38 3 0 3 C0 2.01 0 1.02 0 0 Z " fill="#0A98B6" transform="translate(31,36)"/>
<path d="M0 0 C2.475 0.495 2.475 0.495 5 1 C5 1.99 5 2.98 5 4 C3.35 4 1.7 4 0 4 C0 2.68 0 1.36 0 0 Z " fill="#1A7EB2" transform="translate(78,36)"/>
<path d="M0 0 C1.98 0 3.96 0 6 0 C5.01 1.485 5.01 1.485 4 3 C3.34 3 2.68 3 2 3 C1.67 4.65 1.34 6.3 1 8 C0.67 8 0.34 8 0 8 C0 5.36 0 2.72 0 0 Z " fill="#03B0A4" transform="translate(43,3)"/>
<path d="M0 0 C1.65 0 3.3 0 5 0 C4.67 1.32 4.34 2.64 4 4 C2.68 4 1.36 4 0 4 C0 2.68 0 1.36 0 0 Z " fill="#28B5A7" transform="translate(90,58)"/>
<path d="M0 0 C0.99 0 1.98 0 3 0 C3 1.98 3 3.96 3 6 C2.01 6 1.02 6 0 6 C0 4.02 0 2.04 0 0 Z " fill="#0DC291" transform="translate(22,11)"/>
<path d="M0 0 C1.98 0 3.96 0 6 0 C6 0.99 6 1.98 6 3 C4.35 3 2.7 3 1 3 C0.67 2.01 0.34 1.02 0 0 Z " fill="#1DA7BC" transform="translate(65,75)"/>
<path d="M0 0 C1.76462683 3.08809695 2 4.23312136 2 8 C1.34 8 0.68 8 0 8 C-0.38063221 5.6739143 -0.71269945 3.33944736 -1 1 C-0.67 0.67 -0.34 0.34 0 0 Z " fill="#0F82DA" transform="translate(78,25)"/>
<path d="M0 0 C1.65 0 3.3 0 5 0 C5 0.99 5 1.98 5 3 C3.35 3 1.7 3 0 3 C0 2.01 0 1.02 0 0 Z " fill="#1E68A3" transform="translate(35,84)"/>
<path d="M0 0 C1.65 0 3.3 0 5 0 C5 0.99 5 1.98 5 3 C3.35 3 1.7 3 0 3 C0 2.01 0 1.02 0 0 Z " fill="#1C69AE" transform="translate(35,80)"/>
<path d="M0 0 C1.32 0 2.64 0 4 0 C4 0.99 4 1.98 4 3 C2.68 3 1.36 3 0 3 C0 2.01 0 1.02 0 0 Z " fill="#1E66B4" transform="translate(20,84)"/>
<path d="M0 0 C1.32 0 2.64 0 4 0 C4 0.99 4 1.98 4 3 C2.68 3 1.36 3 0 3 C0 2.01 0 1.02 0 0 Z " fill="#1A71BA" transform="translate(20,80)"/>
<path d="M0 0 C1.32 0 2.64 0 4 0 C4 0.99 4 1.98 4 3 C2.68 3 1.36 3 0 3 C0 2.01 0 1.02 0 0 Z " fill="#2B74AA" transform="translate(51,35)"/>
</svg>
