<svg id="visual" viewBox="0 0 900 600" width="900" height="600" xmlns="http://www.w3.org/2000/svg" xmlns:xlink="http://www.w3.org/1999/xlink" version="1.1"><path d="M0 43L82 37L164 79L245 97L327 55L409 43L491 67L573 79L655 97L736 79L818 91L900 97L900 0L818 0L736 0L655 0L573 0L491 0L409 0L327 0L245 0L164 0L82 0L0 0Z" fill="#00cc8e"></path><path d="M0 103L82 109L164 127L245 157L327 127L409 115L491 163L573 145L655 199L736 133L818 133L900 169L900 95L818 89L736 77L655 95L573 77L491 65L409 41L327 53L245 95L164 77L82 35L0 41Z" fill="#00b98a"></path><path d="M0 331L82 331L164 295L245 373L327 307L409 265L491 325L573 361L655 367L736 259L818 397L900 313L900 167L818 131L736 131L655 197L573 143L491 161L409 113L327 125L245 155L164 125L82 107L0 101Z" fill="#00a784"></path><path d="M0 457L82 451L164 463L245 433L327 451L409 409L491 415L573 463L655 511L736 427L818 475L900 385L900 311L818 395L736 257L655 365L573 359L491 323L409 263L327 305L245 371L164 293L82 329L0 329Z" fill="#00957c"></path><path d="M0 601L82 601L164 601L245 601L327 601L409 601L491 601L573 601L655 601L736 601L818 601L900 601L900 383L818 473L736 425L655 509L573 461L491 413L409 407L327 449L245 431L164 461L82 449L0 455Z" fill="#038373"></path></svg>