<svg id="visual" viewBox="0 0 900 600" width="900" height="600" xmlns="http://www.w3.org/2000/svg" xmlns:xlink="http://www.w3.org/1999/xlink" version="1.1"><path d="M0 283L113 283L113 91L225 91L225 271L338 271L338 187L450 187L450 271L563 271L563 271L675 271L675 127L788 127L788 97L900 97L900 205L900 0L900 0L788 0L788 0L675 0L675 0L563 0L563 0L450 0L450 0L338 0L338 0L225 0L225 0L113 0L113 0L0 0Z" fill="#fa7268"></path><path d="M0 367L113 367L113 223L225 223L225 319L338 319L338 301L450 301L450 391L563 391L563 325L675 325L675 181L788 181L788 133L900 133L900 337L900 203L900 95L788 95L788 125L675 125L675 269L563 269L563 269L450 269L450 185L338 185L338 269L225 269L225 89L113 89L113 281L0 281Z" fill="#e45765"></path><path d="M0 457L113 457L113 541L225 541L225 403L338 403L338 535L450 535L450 493L563 493L563 517L675 517L675 469L788 469L788 535L900 535L900 445L900 335L900 131L788 131L788 179L675 179L675 323L563 323L563 389L450 389L450 299L338 299L338 317L225 317L225 221L113 221L113 365L0 365Z" fill="#cb3d62"></path><path d="M0 601L113 601L113 601L225 601L225 601L338 601L338 601L450 601L450 601L563 601L563 601L675 601L675 601L788 601L788 601L900 601L900 601L900 443L900 533L788 533L788 467L675 467L675 515L563 515L563 491L450 491L450 533L338 533L338 401L225 401L225 539L113 539L113 455L0 455Z" fill="#b0235f"></path></svg>