<svg id="visual" viewBox="0 0 900 600" width="900" height="600" xmlns="http://www.w3.org/2000/svg" xmlns:xlink="http://www.w3.org/1999/xlink" version="1.1"><path d="M0 145L13.7 157C27.3 169 54.7 193 82 190C109.3 187 136.7 157 163.8 141C191 125 218 123 245.2 145C272.3 167 299.7 213 327 233C354.3 253 381.7 247 409 237C436.3 227 463.7 213 491 208C518.3 203 545.7 207 573 207C600.3 207 627.7 203 654.8 187C682 171 709 143 736.2 141C763.3 139 790.7 163 818 192C845.3 221 872.7 255 886.3 272L900 289L900 0L886.3 0C872.7 0 845.3 0 818 0C790.7 0 763.3 0 736.2 0C709 0 682 0 654.8 0C627.7 0 600.3 0 573 0C545.7 0 518.3 0 491 0C463.7 0 436.3 0 409 0C381.7 0 354.3 0 327 0C299.7 0 272.3 0 245.2 0C218 0 191 0 163.8 0C136.7 0 109.3 0 82 0C54.7 0 27.3 0 13.7 0L0 0Z" fill="#6198ff"></path><path d="M0 223L13.7 239C27.3 255 54.7 287 82 285C109.3 283 136.7 247 163.8 227C191 207 218 203 245.2 224C272.3 245 299.7 291 327 311C354.3 331 381.7 325 409 319C436.3 313 463.7 307 491 310C518.3 313 545.7 325 573 325C600.3 325 627.7 313 654.8 291C682 269 709 237 736.2 229C763.3 221 790.7 237 818 266C845.3 295 872.7 337 886.3 358L900 379L900 287L886.3 270C872.7 253 845.3 219 818 190C790.7 161 763.3 137 736.2 139C709 141 682 169 654.8 185C627.7 201 600.3 205 573 205C545.7 205 518.3 201 491 206C463.7 211 436.3 225 409 235C381.7 245 354.3 251 327 231C299.7 211 272.3 165 245.2 143C218 121 191 123 163.8 139C136.7 155 109.3 185 82 188C54.7 191 27.3 167 13.7 155L0 143Z" fill="#3c80ff"></path><path d="M0 313L13.7 323C27.3 333 54.7 353 82 346C109.3 339 136.7 305 163.8 292C191 279 218 287 245.2 312C272.3 337 299.7 379 327 392C354.3 405 381.7 389 409 375C436.3 361 463.7 349 491 355C518.3 361 545.7 385 573 387C600.3 389 627.7 369 654.8 345C682 321 709 293 736.2 291C763.3 289 790.7 313 818 345C845.3 377 872.7 417 886.3 437L900 457L900 377L886.3 356C872.7 335 845.3 293 818 264C790.7 235 763.3 219 736.2 227C709 235 682 267 654.8 289C627.7 311 600.3 323 573 323C545.7 323 518.3 311 491 308C463.7 305 436.3 311 409 317C381.7 323 354.3 329 327 309C299.7 289 272.3 243 245.2 222C218 201 191 205 163.8 225C136.7 245 109.3 281 82 283C54.7 285 27.3 253 13.7 237L0 221Z" fill="#0066ff"></path><path d="M0 487L13.7 487C27.3 487 54.7 487 82 490C109.3 493 136.7 499 163.8 504C191 509 218 513 245.2 515C272.3 517 299.7 517 327 511C354.3 505 381.7 493 409 492C436.3 491 463.7 501 491 512C518.3 523 545.7 535 573 529C600.3 523 627.7 499 654.8 490C682 481 709 487 736.2 494C763.3 501 790.7 509 818 518C845.3 527 872.7 537 886.3 542L900 547L900 455L886.3 435C872.7 415 845.3 375 818 343C790.7 311 763.3 287 736.2 289C709 291 682 319 654.8 343C627.7 367 600.3 387 573 385C545.7 383 518.3 359 491 353C463.7 347 436.3 359 409 373C381.7 387 354.3 403 327 390C299.7 377 272.3 335 245.2 310C218 285 191 277 163.8 290C136.7 303 109.3 337 82 344C54.7 351 27.3 331 13.7 321L0 311Z" fill="#0059dd"></path><path d="M0 601L13.7 601C27.3 601 54.7 601 82 601C109.3 601 136.7 601 163.8 601C191 601 218 601 245.2 601C272.3 601 299.7 601 327 601C354.3 601 381.7 601 409 601C436.3 601 463.7 601 491 601C518.3 601 545.7 601 573 601C600.3 601 627.7 601 654.8 601C682 601 709 601 736.2 601C763.3 601 790.7 601 818 601C845.3 601 872.7 601 886.3 601L900 601L900 545L886.3 540C872.7 535 845.3 525 818 516C790.7 507 763.3 499 736.2 492C709 485 682 479 654.8 488C627.7 497 600.3 521 573 527C545.7 533 518.3 521 491 510C463.7 499 436.3 489 409 490C381.7 491 354.3 503 327 509C299.7 515 272.3 515 245.2 513C218 511 191 507 163.8 502C136.7 497 109.3 491 82 488C54.7 485 27.3 485 13.7 485L0 485Z" fill="#004cbb"></path></svg>