<svg id="visual" viewBox="0 0 900 600" width="900" height="600" xmlns="http://www.w3.org/2000/svg" xmlns:xlink="http://www.w3.org/1999/xlink" version="1.1"><rect x="0" y="0" width="900" height="600" fill="#002233"></rect><path d="M0 417L21.5 424.8C43 432.7 86 448.3 128.8 450C171.7 451.7 214.3 439.3 257.2 435C300 430.7 343 434.3 385.8 440.3C428.7 446.3 471.3 454.7 514.2 454C557 453.3 600 443.7 642.8 443.3C685.7 443 728.3 452 771.2 442C814 432 857 403 878.5 388.5L900 374L900 601L878.5 601C857 601 814 601 771.2 601C728.3 601 685.7 601 642.8 601C600 601 557 601 514.2 601C471.3 601 428.7 601 385.8 601C343 601 300 601 257.2 601C214.3 601 171.7 601 128.8 601C86 601 43 601 21.5 601L0 601Z" fill="#0066FF" stroke-linecap="round" stroke-linejoin="miter"></path></svg>