<svg id="visual" viewBox="0 0 900 600" width="900" height="600" xmlns="http://www.w3.org/2000/svg" xmlns:xlink="http://www.w3.org/1999/xlink" version="1.1"><rect width="900" height="600" fill="#931F1F"></rect><g><g transform="translate(662 185)"><path d="M90 -32.4C100.8 4.2 83 47 49.8 71.9C16.6 96.8 -32 103.9 -63.4 82.3C-94.8 60.7 -109 10.3 -95.6 -29.9C-82.1 -70.1 -41.1 -100.1 -0.8 -99.9C39.6 -99.6 79.1 -69.1 90 -32.4Z" stroke="#F7760E" fill="none" stroke-width="20"></path></g><g transform="translate(165 49)"><path d="M91.5 -32.8C103.2 6.2 86.6 51.3 56.2 72.2C25.7 93.2 -18.7 89.9 -47 68.4C-75.4 47 -87.8 7.2 -77.3 -30.2C-66.8 -67.6 -33.4 -102.6 3.3 -103.6C39.9 -104.7 79.9 -71.8 91.5 -32.8Z" stroke="#F7760E" fill="none" stroke-width="20"></path></g><g transform="translate(608 539)"><path d="M67.5 -22.4C76.8 6.7 66.3 41.8 41 61.4C15.6 81 -24.7 85.2 -49.7 67.2C-74.8 49.3 -84.7 9.3 -73.8 -21.9C-63 -53.1 -31.5 -75.4 -1.2 -75C29.1 -74.6 58.2 -51.5 67.5 -22.4Z" stroke="#F7760E" fill="none" stroke-width="20"></path></g></g></svg>