<svg id="visual" viewBox="0 0 900 600" width="900" height="600" xmlns="http://www.w3.org/2000/svg" xmlns:xlink="http://www.w3.org/1999/xlink" version="1.1"><rect x="0" y="0" width="900" height="600" fill="#001220"></rect><defs><linearGradient id="grad1_0" x1="33.3%" y1="0%" x2="100%" y2="100%"><stop offset="20%" stop-color="#001220" stop-opacity="1"></stop><stop offset="80%" stop-color="#001220" stop-opacity="1"></stop></linearGradient></defs><defs><linearGradient id="grad2_0" x1="0%" y1="0%" x2="66.7%" y2="100%"><stop offset="20%" stop-color="#001220" stop-opacity="1"></stop><stop offset="80%" stop-color="#001220" stop-opacity="1"></stop></linearGradient></defs><g transform="translate(900, 0)"><path d="M0 378.6C-21.4 354.9 -42.9 331.2 -62.8 315.8C-82.8 300.4 -101.2 293.2 -116.7 281.8C-132.3 270.4 -144.9 254.7 -165 246.9C-185.1 239.2 -212.7 239.3 -222.7 222.7C-232.8 206.2 -225.3 172.9 -227 151.7C-228.7 130.4 -239.5 121.2 -269.8 111.7C-300.1 102.3 -349.9 92.5 -371.3 73.9C-392.7 55.2 -385.6 27.6 -378.6 0L0 0Z" fill="#FBAE3C"></path></g><g transform="translate(0, 600)"><path d="M0 -378.6C26.1 -380.2 52.3 -381.9 73.9 -371.3C95.4 -360.8 112.5 -338 136.2 -328.9C160 -319.8 190.4 -324.3 206.1 -308.5C221.8 -292.6 222.7 -256.3 236.9 -236.9C251.1 -217.5 278.5 -214.9 302.7 -202.2C326.8 -189.6 347.7 -166.8 337.2 -139.7C326.7 -112.5 284.7 -81 286.4 -57C288 -33 333.3 -16.5 378.6 0L0 0Z" fill="#FBAE3C"></path></g></svg>