<svg id="visual" viewBox="0 0 900 600" width="900" height="600" xmlns="http://www.w3.org/2000/svg" xmlns:xlink="http://www.w3.org/1999/xlink" version="1.1"><rect x="0" y="0" width="900" height="600" fill="#140021"></rect><path d="M351 0L443 0L443 26L375 26L375 52L364 52L364 78L295 78L295 104L472 104L472 130L447 130L447 157L413 157L413 183L332 183L332 209L427 209L427 235L492 235L492 261L288 261L288 287L400 287L400 313L485 313L485 339L410 339L410 365L358 365L358 391L477 391L477 417L410 417L410 443L305 443L305 470L488 470L488 496L404 496L404 522L477 522L477 548L398 548L398 574L308 574L308 600L0 600L0 574L0 574L0 548L0 548L0 522L0 522L0 496L0 496L0 470L0 470L0 443L0 443L0 417L0 417L0 391L0 391L0 365L0 365L0 339L0 339L0 313L0 313L0 287L0 287L0 261L0 261L0 235L0 235L0 209L0 209L0 183L0 183L0 157L0 157L0 130L0 130L0 104L0 104L0 78L0 78L0 52L0 52L0 26L0 26L0 0L0 0Z" fill="#9900ff"></path><path d="M199 0L327 0L327 26L256 26L256 52L271 52L271 78L255 78L255 104L209 104L209 130L325 130L325 157L257 157L257 183L360 183L360 209L209 209L209 235L259 235L259 261L246 261L246 287L279 287L279 313L320 313L320 339L242 339L242 365L337 365L337 391L382 391L382 417L236 417L236 443L220 443L220 470L335 470L335 496L328 496L328 522L376 522L376 548L378 548L378 574L371 574L371 600L0 600L0 574L0 574L0 548L0 548L0 522L0 522L0 496L0 496L0 470L0 470L0 443L0 443L0 417L0 417L0 391L0 391L0 365L0 365L0 339L0 339L0 313L0 313L0 287L0 287L0 261L0 261L0 235L0 235L0 209L0 209L0 183L0 183L0 157L0 157L0 130L0 130L0 104L0 104L0 78L0 78L0 52L0 52L0 26L0 26L0 0L0 0Z" fill="#8200d9"></path><path d="M204 0L223 0L223 26L235 26L235 52L259 52L259 78L187 78L187 104L163 104L163 130L137 130L137 157L138 157L138 183L136 183L136 209L137 209L137 235L173 235L173 261L116 261L116 287L188 287L188 313L160 313L160 339L185 339L185 365L150 365L150 391L229 391L229 417L159 417L159 443L222 443L222 470L257 470L257 496L286 496L286 522L176 522L176 548L274 548L274 574L260 574L260 600L0 600L0 574L0 574L0 548L0 548L0 522L0 522L0 496L0 496L0 470L0 470L0 443L0 443L0 417L0 417L0 391L0 391L0 365L0 365L0 339L0 339L0 313L0 313L0 287L0 287L0 261L0 261L0 235L0 235L0 209L0 209L0 183L0 183L0 157L0 157L0 130L0 130L0 104L0 104L0 78L0 78L0 52L0 52L0 26L0 26L0 0L0 0Z" fill="#6c00b4"></path><path d="M124 0L146 0L146 26L39 26L39 52L159 52L159 78L84 78L84 104L164 104L164 130L147 130L147 157L109 157L109 183L72 183L72 209L148 209L148 235L116 235L116 261L123 261L123 287L93 287L93 313L69 313L69 339L103 339L103 365L81 365L81 391L127 391L127 417L97 417L97 443L168 443L168 470L181 470L181 496L74 496L74 522L120 522L120 548L123 548L123 574L52 574L52 600L0 600L0 574L0 574L0 548L0 548L0 522L0 522L0 496L0 496L0 470L0 470L0 443L0 443L0 417L0 417L0 391L0 391L0 365L0 365L0 339L0 339L0 313L0 313L0 287L0 287L0 261L0 261L0 235L0 235L0 209L0 209L0 183L0 183L0 157L0 157L0 130L0 130L0 104L0 104L0 78L0 78L0 52L0 52L0 26L0 26L0 0L0 0Z" fill="#560090"></path></svg>