<svg id="visual" viewBox="0 0 900 600" width="900" height="600" xmlns="http://www.w3.org/2000/svg" xmlns:xlink="http://www.w3.org/1999/xlink" version="1.1"><rect x="0" y="0" width="900" height="600" fill="#001220"></rect><path d="M0 341L10 340.7C20 340.3 40 339.7 60 350.8C80 362 100 385 120 381.7C140 378.3 160 348.7 180 345.7C200 342.7 220 366.3 240 367.7C260 369 280 348 300 337C320 326 340 325 360 329.7C380 334.3 400 344.7 420 351.3C440 358 460 361 480 354.3C500 347.7 520 331.3 540 330.8C560 330.3 580 345.7 600 353.5C620 361.3 640 361.7 660 364C680 366.3 700 370.7 720 364C740 357.3 760 339.7 780 340.8C800 342 820 362 840 373C860 384 880 386 890 387L900 388L900 601L890 601C880 601 860 601 840 601C820 601 800 601 780 601C760 601 740 601 720 601C700 601 680 601 660 601C640 601 620 601 600 601C580 601 560 601 540 601C520 601 500 601 480 601C460 601 440 601 420 601C400 601 380 601 360 601C340 601 320 601 300 601C280 601 260 601 240 601C220 601 200 601 180 601C160 601 140 601 120 601C100 601 80 601 60 601C40 601 20 601 10 601L0 601Z" fill="#fa7268"></path><path d="M0 417L10 415.2C20 413.3 40 409.7 60 408C80 406.3 100 406.7 120 398.2C140 389.7 160 372.3 180 365C200 357.7 220 360.3 240 372C260 383.7 280 404.3 300 412.3C320 420.3 340 415.7 360 411.5C380 407.3 400 403.7 420 400.3C440 397 460 394 480 387.5C500 381 520 371 540 377.2C560 383.3 580 405.7 600 413.5C620 421.3 640 414.7 660 404.3C680 394 700 380 720 376.8C740 373.7 760 381.3 780 382.3C800 383.3 820 377.7 840 382.8C860 388 880 404 890 412L900 420L900 601L890 601C880 601 860 601 840 601C820 601 800 601 780 601C760 601 740 601 720 601C700 601 680 601 660 601C640 601 620 601 600 601C580 601 560 601 540 601C520 601 500 601 480 601C460 601 440 601 420 601C400 601 380 601 360 601C340 601 320 601 300 601C280 601 260 601 240 601C220 601 200 601 180 601C160 601 140 601 120 601C100 601 80 601 60 601C40 601 20 601 10 601L0 601Z" fill="#f16367"></path><path d="M0 442L10 442.7C20 443.3 40 444.7 60 446.7C80 448.7 100 451.3 120 451C140 450.7 160 447.3 180 439.2C200 431 220 418 240 422C260 426 280 447 300 448.2C320 449.3 340 430.7 360 422C380 413.3 400 414.7 420 424.8C440 435 460 454 480 458C500 462 520 451 540 448.3C560 445.7 580 451.3 600 451.3C620 451.3 640 445.7 660 444.3C680 443 700 446 720 451.2C740 456.3 760 463.7 780 453.7C800 443.7 820 416.3 840 402.5C860 388.7 880 388.3 890 388.2L900 388L900 601L890 601C880 601 860 601 840 601C820 601 800 601 780 601C760 601 740 601 720 601C700 601 680 601 660 601C640 601 620 601 600 601C580 601 560 601 540 601C520 601 500 601 480 601C460 601 440 601 420 601C400 601 380 601 360 601C340 601 320 601 300 601C280 601 260 601 240 601C220 601 200 601 180 601C160 601 140 601 120 601C100 601 80 601 60 601C40 601 20 601 10 601L0 601Z" fill="#e85467"></path><path d="M0 437L10 447C20 457 40 477 60 484.5C80 492 100 487 120 479.3C140 471.7 160 461.3 180 461.8C200 462.3 220 473.7 240 476.2C260 478.7 280 472.3 300 465.7C320 459 340 452 360 450.7C380 449.3 400 453.7 420 459.5C440 465.3 460 472.7 480 473.2C500 473.7 520 467.3 540 466C560 464.7 580 468.3 600 468C620 467.7 640 463.3 660 461.5C680 459.7 700 460.3 720 460.2C740 460 760 459 780 461.8C800 464.7 820 471.3 840 478.2C860 485 880 492 890 495.5L900 499L900 601L890 601C880 601 860 601 840 601C820 601 800 601 780 601C760 601 740 601 720 601C700 601 680 601 660 601C640 601 620 601 600 601C580 601 560 601 540 601C520 601 500 601 480 601C460 601 440 601 420 601C400 601 380 601 360 601C340 601 320 601 300 601C280 601 260 601 240 601C220 601 200 601 180 601C160 601 140 601 120 601C100 601 80 601 60 601C40 601 20 601 10 601L0 601Z" fill="#de4467"></path><path d="M0 478L10 480C20 482 40 486 60 495C80 504 100 518 120 515.8C140 513.7 160 495.3 180 494C200 492.7 220 508.3 240 512.7C260 517 280 510 300 508.5C320 507 340 511 360 514C380 517 400 519 420 518.7C440 518.3 460 515.7 480 515C500 514.3 520 515.7 540 513C560 510.3 580 503.7 600 505.8C620 508 640 519 660 518.5C680 518 700 506 720 498.5C740 491 760 488 780 495.5C800 503 820 521 840 526.7C860 532.3 880 525.7 890 522.3L900 519L900 601L890 601C880 601 860 601 840 601C820 601 800 601 780 601C760 601 740 601 720 601C700 601 680 601 660 601C640 601 620 601 600 601C580 601 560 601 540 601C520 601 500 601 480 601C460 601 440 601 420 601C400 601 380 601 360 601C340 601 320 601 300 601C280 601 260 601 240 601C220 601 200 601 180 601C160 601 140 601 120 601C100 601 80 601 60 601C40 601 20 601 10 601L0 601Z" fill="#d23467"></path><path d="M0 542L10 541C20 540 40 538 60 541.8C80 545.7 100 555.3 120 561.3C140 567.3 160 569.7 180 563.8C200 558 220 544 240 540.3C260 536.7 280 543.3 300 548C320 552.7 340 555.3 360 552.2C380 549 400 540 420 537.5C440 535 460 539 480 539.2C500 539.3 520 535.7 540 538.2C560 540.7 580 549.3 600 551.8C620 554.3 640 550.7 660 549.8C680 549 700 551 720 547.8C740 544.7 760 536.3 780 535C800 533.7 820 539.3 840 545.3C860 551.3 880 557.7 890 560.8L900 564L900 601L890 601C880 601 860 601 840 601C820 601 800 601 780 601C760 601 740 601 720 601C700 601 680 601 660 601C640 601 620 601 600 601C580 601 560 601 540 601C520 601 500 601 480 601C460 601 440 601 420 601C400 601 380 601 360 601C340 601 320 601 300 601C280 601 260 601 240 601C220 601 200 601 180 601C160 601 140 601 120 601C100 601 80 601 60 601C40 601 20 601 10 601L0 601Z" fill="#c62368"></path></svg>