<svg id="visual" viewBox="0 0 900 600" width="900" height="600" xmlns="http://www.w3.org/2000/svg" xmlns:xlink="http://www.w3.org/1999/xlink" version="1.1"><g stroke-width="1" stroke-linejoin="bevel"><path d="M388 331L278 360L420 418Z" fill="#1d4e6b" stroke="#1d4e6b"></path><path d="M278 360L276 501L420 418Z" fill="#081a28" stroke="#081a28"></path><path d="M276 501L412 505L420 418Z" fill="#00101c" stroke="#00101c"></path><path d="M388 331L309 270L278 360Z" fill="#081a28" stroke="#081a28"></path><path d="M176 320L209 436L278 360Z" fill="#081a28" stroke="#081a28"></path><path d="M278 360L209 436L276 501Z" fill="#246688" stroke="#246688"></path><path d="M388 331L320 231L309 270Z" fill="#081a28" stroke="#081a28"></path><path d="M309 270L176 320L278 360Z" fill="#277297" stroke="#277297"></path><path d="M412 505L483 493L420 418Z" fill="#205a7a" stroke="#205a7a"></path><path d="M420 418L519 267L388 331Z" fill="#19435d" stroke="#19435d"></path><path d="M483 493L515 431L420 418Z" fill="#0c2435" stroke="#0c2435"></path><path d="M388 331L437 198L320 231Z" fill="#1d4e6b" stroke="#1d4e6b"></path><path d="M169 220L176 320L309 270Z" fill="#112e42" stroke="#112e42"></path><path d="M116 480L191 509L209 436Z" fill="#00101c" stroke="#00101c"></path><path d="M209 436L191 509L276 501Z" fill="#0c2435" stroke="#0c2435"></path><path d="M276 501L334 600L412 505Z" fill="#246688" stroke="#246688"></path><path d="M174 600L334 600L276 501Z" fill="#1d4e6b" stroke="#1d4e6b"></path><path d="M412 505L435 600L483 493Z" fill="#277297" stroke="#277297"></path><path d="M515 431L519 267L420 418Z" fill="#1d4e6b" stroke="#1d4e6b"></path><path d="M519 267L437 198L388 331Z" fill="#277297" stroke="#277297"></path><path d="M334 600L435 600L412 505Z" fill="#246688" stroke="#246688"></path><path d="M483 493L569 439L515 431Z" fill="#112e42" stroke="#112e42"></path><path d="M606 485L569 439L483 493Z" fill="#297ea6" stroke="#297ea6"></path><path d="M515 431L590 303L519 267Z" fill="#0c2435" stroke="#0c2435"></path><path d="M83 403L116 480L209 436Z" fill="#081a28" stroke="#081a28"></path><path d="M191 509L174 600L276 501Z" fill="#1d4e6b" stroke="#1d4e6b"></path><path d="M237 80L169 220L320 231Z" fill="#277297" stroke="#277297"></path><path d="M320 231L169 220L309 270Z" fill="#112e42" stroke="#112e42"></path><path d="M176 320L83 403L209 436Z" fill="#205a7a" stroke="#205a7a"></path><path d="M519 267L491 186L437 198Z" fill="#1d4e6b" stroke="#1d4e6b"></path><path d="M437 198L376 100L320 231Z" fill="#19435d" stroke="#19435d"></path><path d="M435 600L500 600L483 493Z" fill="#0c2435" stroke="#0c2435"></path><path d="M569 439L590 303L515 431Z" fill="#205a7a" stroke="#205a7a"></path><path d="M519 267L593 177L491 186Z" fill="#081a28" stroke="#081a28"></path><path d="M107 285L83 403L176 320Z" fill="#246688" stroke="#246688"></path><path d="M169 220L107 285L176 320Z" fill="#00101c" stroke="#00101c"></path><path d="M116 480L174 600L191 509Z" fill="#112e42" stroke="#112e42"></path><path d="M500 600L606 485L483 493Z" fill="#19435d" stroke="#19435d"></path><path d="M569 439L667 407L590 303Z" fill="#1d4e6b" stroke="#1d4e6b"></path><path d="M492 104L376 100L437 198Z" fill="#00101c" stroke="#00101c"></path><path d="M169 220L88 217L107 285Z" fill="#112e42" stroke="#112e42"></path><path d="M0 329L0 400L83 403Z" fill="#19435d" stroke="#19435d"></path><path d="M79 99L88 217L169 220Z" fill="#15384f" stroke="#15384f"></path><path d="M606 485L667 407L569 439Z" fill="#15384f" stroke="#15384f"></path><path d="M376 100L289 76L320 231Z" fill="#19435d" stroke="#19435d"></path><path d="M491 186L492 104L437 198Z" fill="#19435d" stroke="#19435d"></path><path d="M376 100L313 0L289 76Z" fill="#081a28" stroke="#081a28"></path><path d="M593 177L492 104L491 186Z" fill="#19435d" stroke="#19435d"></path><path d="M593 177L519 267L590 303Z" fill="#0c2435" stroke="#0c2435"></path><path d="M733 272L593 177L590 303Z" fill="#0c2435" stroke="#0c2435"></path><path d="M289 76L237 80L320 231Z" fill="#297ea6" stroke="#297ea6"></path><path d="M500 600L614 600L606 485Z" fill="#00101c" stroke="#00101c"></path><path d="M606 485L680 521L667 407Z" fill="#246688" stroke="#246688"></path><path d="M83 403L0 483L116 480Z" fill="#0c2435" stroke="#0c2435"></path><path d="M116 480L60 600L174 600Z" fill="#1d4e6b" stroke="#1d4e6b"></path><path d="M0 329L83 403L107 285Z" fill="#205a7a" stroke="#205a7a"></path><path d="M0 483L60 600L116 480Z" fill="#1d4e6b" stroke="#1d4e6b"></path><path d="M0 229L0 329L107 285Z" fill="#297ea6" stroke="#297ea6"></path><path d="M614 600L680 521L606 485Z" fill="#297ea6" stroke="#297ea6"></path><path d="M0 400L0 483L83 403Z" fill="#00101c" stroke="#00101c"></path><path d="M0 137L0 229L88 217Z" fill="#0c2435" stroke="#0c2435"></path><path d="M88 217L0 229L107 285Z" fill="#0c2435" stroke="#0c2435"></path><path d="M732 64L588 86L593 177Z" fill="#297ea6" stroke="#297ea6"></path><path d="M593 177L588 86L492 104Z" fill="#297ea6" stroke="#297ea6"></path><path d="M428 0L313 0L376 100Z" fill="#205a7a" stroke="#205a7a"></path><path d="M428 0L376 100L492 104Z" fill="#277297" stroke="#277297"></path><path d="M289 76L226 0L237 80Z" fill="#112e42" stroke="#112e42"></path><path d="M237 80L79 99L169 220Z" fill="#297ea6" stroke="#297ea6"></path><path d="M226 0L79 99L237 80Z" fill="#0c2435" stroke="#0c2435"></path><path d="M0 483L0 600L60 600Z" fill="#297ea6" stroke="#297ea6"></path><path d="M509 0L428 0L492 104Z" fill="#00101c" stroke="#00101c"></path><path d="M667 407L733 272L590 303Z" fill="#15384f" stroke="#15384f"></path><path d="M782 310L733 272L667 407Z" fill="#1d4e6b" stroke="#1d4e6b"></path><path d="M313 0L226 0L289 76Z" fill="#246688" stroke="#246688"></path><path d="M614 600L712 600L680 521Z" fill="#277297" stroke="#277297"></path><path d="M680 521L778 484L667 407Z" fill="#00101c" stroke="#00101c"></path><path d="M588 86L509 0L492 104Z" fill="#277297" stroke="#277297"></path><path d="M733 272L739 217L593 177Z" fill="#112e42" stroke="#112e42"></path><path d="M588 86L599 0L509 0Z" fill="#0c2435" stroke="#0c2435"></path><path d="M782 310L739 217L733 272Z" fill="#081a28" stroke="#081a28"></path><path d="M79 99L0 137L88 217Z" fill="#19435d" stroke="#19435d"></path><path d="M0 0L0 137L79 99Z" fill="#19435d" stroke="#19435d"></path><path d="M712 600L778 484L680 521Z" fill="#00101c" stroke="#00101c"></path><path d="M826 397L782 310L667 407Z" fill="#246688" stroke="#246688"></path><path d="M672 0L599 0L588 86Z" fill="#0c2435" stroke="#0c2435"></path><path d="M226 0L77 0L79 99Z" fill="#081a28" stroke="#081a28"></path><path d="M778 484L826 397L667 407Z" fill="#0c2435" stroke="#0c2435"></path><path d="M791 137L732 64L739 217Z" fill="#205a7a" stroke="#205a7a"></path><path d="M712 600L809 600L778 484Z" fill="#277297" stroke="#277297"></path><path d="M900 461L900 385L826 397Z" fill="#297ea6" stroke="#297ea6"></path><path d="M791 137L739 217L836 194Z" fill="#081a28" stroke="#081a28"></path><path d="M739 217L732 64L593 177Z" fill="#15384f" stroke="#15384f"></path><path d="M732 64L672 0L588 86Z" fill="#246688" stroke="#246688"></path><path d="M836 194L739 217L782 310Z" fill="#297ea6" stroke="#297ea6"></path><path d="M77 0L0 0L79 99Z" fill="#00101c" stroke="#00101c"></path><path d="M900 327L836 194L782 310Z" fill="#112e42" stroke="#112e42"></path><path d="M900 461L826 397L778 484Z" fill="#081a28" stroke="#081a28"></path><path d="M826 397L900 327L782 310Z" fill="#19435d" stroke="#19435d"></path><path d="M809 600L900 461L778 484Z" fill="#19435d" stroke="#19435d"></path><path d="M900 385L900 327L826 397Z" fill="#00101c" stroke="#00101c"></path><path d="M809 600L900 600L900 461Z" fill="#246688" stroke="#246688"></path><path d="M900 327L900 166L836 194Z" fill="#112e42" stroke="#112e42"></path><path d="M836 194L900 166L791 137Z" fill="#112e42" stroke="#112e42"></path><path d="M791 137L811 0L732 64Z" fill="#00101c" stroke="#00101c"></path><path d="M732 64L811 0L672 0Z" fill="#1d4e6b" stroke="#1d4e6b"></path><path d="M900 108L811 0L791 137Z" fill="#19435d" stroke="#19435d"></path><path d="M900 166L900 108L791 137Z" fill="#297ea6" stroke="#297ea6"></path><path d="M900 108L900 0L811 0Z" fill="#081a28" stroke="#081a28"></path></g></svg>